<svg xmlns="http://www.w3.org/2000/svg" width="24" height="28" viewBox="0 0 24 28">
  <path id="cinema" d="M294.258,10.657c0-.057.017-.108.02-.165a3.752,3.752,0,0,0-1.88-3.264,4.354,4.354,0,0,0,.034-.456,3.678,3.678,0,0,0-1.018-2.624,3.593,3.593,0,0,0-2.548-1.125h-.111a3.608,3.608,0,0,0-1.3.235,3.68,3.68,0,0,0-6.649,0,3.494,3.494,0,0,0-1.275-.234,3.541,3.541,0,0,0-2.6,1.031,3.681,3.681,0,0,0-1.115,2.588v.138a4.3,4.3,0,0,0,.034.451,3.763,3.763,0,0,0-1.88,3.283c0,.049.013.1.017.147a2.795,2.795,0,0,0,.906,5.43h.084l1.563,12.252a.928.928,0,0,0,.916.814h13.337a.926.926,0,0,0,.915-.814l1.564-12.252h.086a2.795,2.795,0,0,0,.9-5.431M277.17,8.681a.925.925,0,0,0,.571-.466.947.947,0,0,0,.054-.742,2.508,2.508,0,0,1-.133-.8,1.813,1.813,0,0,1,.549-1.275,1.753,1.753,0,0,1,1.311-.507,1.483,1.483,0,0,1,1.185.478.917.917,0,0,0,.974.207.933.933,0,0,0,.594-.809,1.851,1.851,0,0,1,3.7,0,.932.932,0,0,0,.593.808.912.912,0,0,0,.975-.206,1.609,1.609,0,0,1,1.185-.478h.1a1.773,1.773,0,0,1,1.26.554,1.816,1.816,0,0,1,.5,1.29,2.392,2.392,0,0,1-.133.741.945.945,0,0,0,.054.741.922.922,0,0,0,.572.467,1.858,1.858,0,0,1,1.355,1.758c0,.016-.009.032-.01.049H275.816v0a1.869,1.869,0,0,1,1.355-1.8m-.332,7.406h3.086l.714,11.2h-2.371Zm4.937,0h4.7l-.715,11.2h-3.27Zm8.206,11.2h-2.372l.715-11.2h3.086Zm3.371-13.065H274.9a.933.933,0,0,1,0-1.866h18.459a.933.933,0,0,1,0,1.866" transform="translate(-272.123 -1.154)" fill="#e51d35"/>
</svg>
