<svg xmlns="http://www.w3.org/2000/svg" width="35" height="24" viewBox="0 0 35 24">
  <path id="golab" d="M90.782,16.993H88.9c-1.232-.168-1.492-.567-1.492-1.008a1.033,1.033,0,0,1,.518-.862,5.317,5.317,0,0,0,1.448.168c3.091,0,4.95-1.679,4.95-4.01a4.244,4.244,0,0,0-2.357-3.758,8.939,8.939,0,0,0-1.4-.483,6.922,6.922,0,0,0-1.383-.188c-2.98,0-5.08,1.7-5.08,4.283a3.477,3.477,0,0,0,2.164,3.359,2.661,2.661,0,0,0-1.448,2.2c0,1.237,1.036,2.286,3.5,2.329h1.856c1.362-.043,2.076.5,2.076,1.364,0,.971-.691,1.6-3.068,1.6-2.7-.042-2.984-.942-2.984-2.142l-2.557,1.5h0c.388,1.7,1.836,2.65,5.466,2.65,4.022,0,6.118-1.427,6.118-3.8,0-1.951-1.753-3.381-4.453-3.212m-3.7-6.222a2.048,2.048,0,0,1,.666-1.426,2.071,2.071,0,0,1,1.485-.54,2.008,2.008,0,0,1,1.674.586,1.984,1.984,0,0,1,.548,1.679,2.191,2.191,0,1,1-4.362.025,2.078,2.078,0,0,1-.011-.325m.011.32v.005h0Zm29.572-9.133a5.518,5.518,0,0,0-1.318.736V0l-.865.1V6.949h.755l.087-.524a1.758,1.758,0,0,0,1.341.65c1.232,0,1.989-1.05,1.989-2.561,0-1.638-.778-2.562-1.989-2.562m-.2,4.429a1.409,1.409,0,0,1-1.124-.651V3.4a1.439,1.439,0,0,1,1.188-.777c.694,0,1.168.483,1.168,1.89,0,1.323-.5,1.868-1.232,1.868m-3.551-.565V3.57c0-1.009-.538-1.618-1.749-1.618a4.98,4.98,0,0,0-1.752.337l.217.629a4.777,4.777,0,0,1,1.362-.272c.691,0,1.059.273,1.059.966v.36h-.776c-1.408,0-2.226.568-2.226,1.618a1.665,1.665,0,0,0,.007.2,1.466,1.466,0,0,0,1.609,1.286,1.735,1.735,0,0,0,1.5-.732,1.017,1.017,0,0,0,.971.732l.217-.609a.576.576,0,0,1-.431-.651m-.863-.148a1.32,1.32,0,0,1-1.183.756.756.756,0,0,1-.207,0,.778.778,0,0,1-.658-.88h0c0-.671.451-1.008,1.38-1.008h.671Zm-9.983,1.241c-3.631,0-5.771,2.435-5.771,6.173v-.005c0,3.906,2.054,6.341,5.9,6.341s5.922-2.307,5.922-6.4-2.011-6.109-6.052-6.109m3.351,1.806-.367,1.994a1.249,1.249,0,0,0-.044.5,4.724,4.724,0,0,1,.347,1.868c0,2.288-1.19,3.569-3.157,3.569s-3.155-1.364-3.155-3.527h0c0-2.078,1.147-3.443,3.091-3.443.174,0,.324.02.474.02a.975.975,0,0,0,.194.02.083.083,0,0,0,.064.02,1.829,1.829,0,0,0,.347,0,1.719,1.719,0,0,0,.367-.188l1.666-.966s.086-.062.15-.02c.041.02.02.146.02.146M107.939,6.3l.474.4a1.984,1.984,0,0,1-1,.377c-.648,0-.994-.379-.994-1.094h0V.1l.865-.1V5.962c0,.272.087.4.324.4a.824.824,0,0,0,.322-.062" transform="translate(-83.644)" fill="#fff"/>
</svg>
