<svg xmlns="http://www.w3.org/2000/svg" width="18" height="16" viewBox="0 0 18 16">
  <path id="like" d="M371.951,17.046a1.327,1.327,0,0,1-.368-.052,1.112,1.112,0,0,1-.115-.042,1.81,1.81,0,0,1-.56-.386,75.839,75.839,0,0,1-6.695-6.428,5.584,5.584,0,0,1,.814-7.883c.056-.045.116-.094.178-.139a5.38,5.38,0,0,1,6.752.256,5.373,5.373,0,0,1,6.917-.117,5.588,5.588,0,0,1,.852,7.838,75.892,75.892,0,0,1-6.733,6.474,1.841,1.841,0,0,1-.559.385,1.049,1.049,0,0,1-.116.042,1.324,1.324,0,0,1-.366.052M368.414,2.829a3.528,3.528,0,0,0-2.126.71l-.112.088a3.812,3.812,0,0,0-.59,5.36,74.516,74.516,0,0,0,6.364,6.115,74.093,74.093,0,0,0,6.406-6.165,3.8,3.8,0,0,0-.623-5.3,3.555,3.555,0,0,0-4.975.476l-.086.106a.9.9,0,0,1-.716.354h0a.9.9,0,0,1-.717-.353A3.522,3.522,0,0,0,368.9,2.863a3.628,3.628,0,0,0-.49-.034" transform="translate(-362.951 -1.046)" fill="#fff"/>
</svg>
