<svg xmlns="http://www.w3.org/2000/svg" width="18" height="18" viewBox="0 0 18 18">
  <path id="riso" d="M9,8a9,9,0,1,0,9,9A9,9,0,0,0,9,8ZM9,24.258A7.258,7.258,0,1,1,16.258,17,7.265,7.265,0,0,1,9,24.258Zm3.832-5.494A13.47,13.47,0,0,1,9,19.239a13.488,13.488,0,0,1-3.832-.475.5.5,0,0,0-.642.555c.287,1.709,2.587,2.9,4.475,2.9s4.184-1.194,4.475-2.9a.5.5,0,0,0-.642-.555ZM4.315,17.283a.434.434,0,0,0,.555.091l2.9-1.742a.437.437,0,0,0,0-.748l-2.9-1.742a.436.436,0,0,0-.559.653l1.219,1.463L4.311,16.721A.434.434,0,0,0,4.315,17.283Zm8.815.091a.436.436,0,0,0,.559-.653l-1.219-1.463L13.689,13.8a.434.434,0,0,0,0-.562.443.443,0,0,0-.555-.091l-2.9,1.742a.437.437,0,0,0,0,.748l2.9,1.742Z" transform="translate(0 -8)" fill="#fff"/>
</svg>
